<svg width="1721" height="1267" viewBox="0 0 1721 1267" fill="none" xmlns="http://www.w3.org/2000/svg">
<g opacity="0.04">
<path d="M1471.46 141.542L6.54553 141.542" stroke="white" stroke-width="2"/>
<path d="M170 138.943V1045.94" stroke="white" stroke-width="2"/>
<path d="M6.54534 138.589V1266.81" stroke="white" stroke-width="2"/>
<path d="M494 138.943V1045.94" stroke="white" stroke-width="2"/>
<path d="M821 138.943V1045.94" stroke="white" stroke-width="2"/>
<path d="M1145 138.943V1045.94" stroke="white" stroke-width="2"/>
<path d="M333 138.943V1045.94" stroke="white" stroke-width="2"/>
<path d="M657 138.943V1045.94" stroke="white" stroke-width="2"/>
<path d="M984 138.943V1045.94" stroke="white" stroke-width="2"/>
<path d="M1308 138.943V1045.94" stroke="white" stroke-width="2"/>
<path d="M1471.46 138.589V1266.81" stroke="white" stroke-width="2"/>
<path d="M1471.46 460.515L6.54553 460.515" stroke="white" stroke-width="2"/>
<path d="M1471.46 784.214L6.54553 784.214" stroke="white" stroke-width="2"/>
<path d="M1471.46 299.848L6.54553 299.848" stroke="white" stroke-width="2"/>
<path d="M1471.46 620.001L6.54553 620.001" stroke="white" stroke-width="2"/>
<path d="M1471.46 937.793L6.54553 937.793" stroke="white" stroke-width="2"/>
<circle cx="6.54414" cy="299.85" r="3.54414" fill="#E5E9E8"/>
<circle cx="169.575" cy="299.85" r="3.54414" fill="#E5E9E8"/>
<circle cx="332.605" cy="299.85" r="3.54414" fill="#E5E9E8"/>
<circle cx="494.454" cy="299.85" r="3.54414" fill="#E5E9E8"/>
<circle cx="657.485" cy="299.85" r="3.54414" fill="#E5E9E8"/>
<circle cx="820.515" cy="299.85" r="3.54414" fill="#E5E9E8"/>
<circle cx="983.546" cy="299.85" r="3.54414" fill="#E5E9E8"/>
<circle cx="1145.4" cy="299.85" r="3.54414" fill="#E5E9E8"/>
<circle cx="1308.43" cy="299.85" r="3.54414" fill="#E5E9E8"/>
<circle cx="1471.46" cy="299.85" r="3.54414" fill="#E5E9E8"/>
<circle cx="6.54414" cy="460.517" r="3.54414" fill="#E5E9E8"/>
<circle cx="6.54414" cy="620.003" r="3.54414" fill="#E5E9E8"/>
<circle cx="6.54414" cy="784.215" r="3.54414" fill="#E5E9E8"/>
<circle cx="6.54414" cy="937.794" r="3.54414" fill="#E5E9E8"/>
<circle cx="6.54414" cy="1098.46" r="3.54414" fill="#E5E9E8"/>
<circle cx="169.575" cy="460.517" r="3.54414" fill="#E5E9E8"/>
<circle cx="169.575" cy="620.003" r="3.54414" fill="#E5E9E8"/>
<circle cx="169.575" cy="784.215" r="3.54414" fill="#E5E9E8"/>
<circle cx="169.575" cy="937.794" r="3.54414" fill="#E5E9E8"/>
<circle cx="332.605" cy="460.517" r="3.54414" fill="#E5E9E8"/>
<circle cx="332.605" cy="620.003" r="3.54414" fill="#E5E9E8"/>
<circle cx="332.605" cy="784.215" r="3.54414" fill="#E5E9E8"/>
<circle cx="332.605" cy="937.794" r="3.54414" fill="#E5E9E8"/>
<circle cx="494.454" cy="460.517" r="3.54414" fill="#E5E9E8"/>
<circle cx="494.454" cy="620.003" r="3.54414" fill="#E5E9E8"/>
<circle cx="494.454" cy="784.215" r="3.54414" fill="#E5E9E8"/>
<circle cx="494.454" cy="937.794" r="3.54414" fill="#E5E9E8"/>
<circle cx="657.485" cy="460.517" r="3.54414" fill="#E5E9E8"/>
<circle cx="657.485" cy="620.003" r="3.54414" fill="#E5E9E8"/>
<circle cx="657.485" cy="784.215" r="3.54414" fill="#E5E9E8"/>
<circle cx="657.485" cy="937.794" r="3.54414" fill="#E5E9E8"/>
<circle cx="820.515" cy="460.517" r="3.54414" fill="#E5E9E8"/>
<circle cx="820.515" cy="620.003" r="3.54414" fill="#E5E9E8"/>
<circle cx="820.515" cy="784.215" r="3.54414" fill="#E5E9E8"/>
<circle cx="820.515" cy="937.794" r="3.54414" fill="#E5E9E8"/>
<circle cx="983.546" cy="460.517" r="3.54414" fill="#E5E9E8"/>
<circle cx="983.546" cy="620.003" r="3.54414" fill="#E5E9E8"/>
<circle cx="983.546" cy="784.215" r="3.54414" fill="#E5E9E8"/>
<circle cx="983.546" cy="937.794" r="3.54414" fill="#E5E9E8"/>
<circle cx="1145.4" cy="460.517" r="3.54414" fill="#E5E9E8"/>
<circle cx="1145.4" cy="620.003" r="3.54414" fill="#E5E9E8"/>
<circle cx="1145.4" cy="784.215" r="3.54414" fill="#E5E9E8"/>
<circle cx="1145.4" cy="937.794" r="3.54414" fill="#E5E9E8"/>
<circle cx="1308.43" cy="460.517" r="3.54414" fill="#E5E9E8"/>
<circle cx="1308.43" cy="620.003" r="3.54414" fill="#E5E9E8"/>
<circle cx="1308.43" cy="784.215" r="3.54414" fill="#E5E9E8"/>
<circle cx="1308.43" cy="937.794" r="3.54414" fill="#E5E9E8"/>
<circle cx="1471.46" cy="460.517" r="3.54414" fill="#E5E9E8"/>
<circle cx="1471.46" cy="620.003" r="3.54414" fill="#E5E9E8"/>
<circle cx="1471.46" cy="784.215" r="3.54414" fill="#E5E9E8"/>
<circle cx="1471.46" cy="937.794" r="3.54414" fill="#E5E9E8"/>
<circle cx="1471.46" cy="1098.46" r="3.54414" fill="#E5E9E8"/>
<circle cx="6.54414" cy="141.544" r="3.54414" fill="#E5E9E8"/>
<circle cx="169.575" cy="141.544" r="3.54414" fill="#E5E9E8"/>
<circle cx="332.605" cy="141.544" r="3.54414" fill="#E5E9E8"/>
<circle cx="494.454" cy="141.544" r="3.54414" fill="#E5E9E8"/>
<circle cx="657.485" cy="141.544" r="3.54414" fill="#E5E9E8"/>
<circle cx="820.515" cy="141.544" r="3.54414" fill="#E5E9E8"/>
<circle cx="983.546" cy="141.544" r="3.54414" fill="#E5E9E8"/>
<circle cx="1145.4" cy="141.544" r="3.54414" fill="#E5E9E8"/>
<circle cx="1308.43" cy="141.544" r="3.54414" fill="#E5E9E8"/>
<circle cx="1471.46" cy="141.544" r="3.54414" fill="#E5E9E8"/>
<circle cx="6.54414" cy="1256.77" r="3.54414" fill="#E5E9E8"/>
<circle cx="1471.46" cy="1256.77" r="3.54414" fill="#E5E9E8"/>
</g>
<g filter="url(#filter0_f_3074_3337)">
<circle cx="898" cy="609.943" r="209" fill="#19FB80" fill-opacity="0.2"/>
</g>
<g filter="url(#filter1_f_3074_3337)">
<circle cx="1112" cy="615.943" r="209" fill="#D1FEE6" fill-opacity="0.2"/>
</g>
<path d="M0 603H1471V1260H0V603Z" fill="url(#paint0_linear_3074_3337)"/>
<defs>
<filter id="filter0_f_3074_3337" x="289" y="0.943359" width="1218" height="1218" filterUnits="userSpaceOnUse" color-interpolation-filters="sRGB">
<feFlood flood-opacity="0" result="BackgroundImageFix"/>
<feBlend mode="normal" in="SourceGraphic" in2="BackgroundImageFix" result="shape"/>
<feGaussianBlur stdDeviation="200" result="effect1_foregroundBlur_3074_3337"/>
</filter>
<filter id="filter1_f_3074_3337" x="503" y="6.94336" width="1218" height="1218" filterUnits="userSpaceOnUse" color-interpolation-filters="sRGB">
<feFlood flood-opacity="0" result="BackgroundImageFix"/>
<feBlend mode="normal" in="SourceGraphic" in2="BackgroundImageFix" result="shape"/>
<feGaussianBlur stdDeviation="200" result="effect1_foregroundBlur_3074_3337"/>
</filter>
<linearGradient id="paint0_linear_3074_3337" x1="735.5" y1="716.276" x2="735.5" y2="1260" gradientUnits="userSpaceOnUse">
<stop stop-color="#0F0F0F" stop-opacity="0"/>
<stop offset="1" stop-color="#0F0F0F"/>
</linearGradient>
</defs>
</svg>
