<svg width="63" height="60" viewBox="0 0 63 60" fill="none" xmlns="http://www.w3.org/2000/svg">
<rect width="62.677" height="59.7025" rx="8" fill="#19FB80"/>
<path d="M49.807 29.9073C49.8072 31.669 49.285 33.3911 48.3063 34.8559C47.3277 36.3208 45.9367 37.4625 44.3091 38.1366C42.6816 38.8108 40.8907 38.9872 39.1629 38.6434C37.4351 38.2997 35.8481 37.4513 34.6025 36.2055L34.5298 36.1269L25.6443 26.094C24.8931 25.3565 23.9408 24.8574 22.907 24.6592C21.8731 24.4609 20.8037 24.5725 19.833 24.9798C18.8624 25.3872 18.0336 26.0721 17.4508 26.9488C16.868 27.8254 16.5571 28.8546 16.5571 29.9073C16.5571 30.96 16.868 31.9893 17.4508 32.8659C18.0336 33.7425 18.8624 34.4275 19.833 34.8348C20.8037 35.2421 21.8731 35.3537 22.907 35.1555C23.9408 34.9573 24.8931 34.4581 25.6443 33.7207L26.1015 33.2041C26.4147 32.8498 26.8558 32.6344 27.3278 32.6053C27.7997 32.5762 28.264 32.7358 28.6183 33.049C28.9726 33.3622 29.188 33.8033 29.2171 34.2753C29.2462 34.7472 29.0866 35.2114 28.7734 35.5658L28.2761 36.1269L28.2034 36.2055C26.9578 37.4509 25.3708 38.299 23.6432 38.6426C21.9156 38.9861 20.1249 38.8096 18.4976 38.1355C16.8703 37.4613 15.4794 36.3198 14.5009 34.8552C13.5223 33.3906 13 31.6687 13 29.9073C13 28.1459 13.5223 26.424 14.5009 24.9594C15.4794 23.4948 16.8703 22.3533 18.4976 21.6792C20.1249 21.005 21.9156 20.8286 23.6432 21.1721C25.3708 21.5156 26.9578 22.3637 28.2034 23.6091L28.2761 23.6878L37.1616 33.7207C37.9128 34.4581 38.8651 34.9573 39.8989 35.1555C40.9328 35.3537 42.0022 35.2421 42.9729 34.8348C43.9436 34.4275 44.7723 33.7425 45.3551 32.8659C45.9379 31.9893 46.2489 30.96 46.2489 29.9073C46.2489 28.8546 45.9379 27.8254 45.3551 26.9488C44.7723 26.0721 43.9436 25.3872 42.9729 24.9798C42.0022 24.5725 40.9328 24.4609 39.8989 24.6592C38.8651 24.8574 37.9128 25.3565 37.1616 26.094L36.7044 26.6105C36.5493 26.786 36.3612 26.9291 36.1508 27.0319C35.9404 27.1346 35.7119 27.1949 35.4781 27.2093C35.2444 27.2237 35.0102 27.192 34.7888 27.1158C34.5673 27.0397 34.3631 26.9207 34.1876 26.7656C34.0122 26.6106 33.869 26.4225 33.7663 26.2121C33.6635 26.0017 33.6033 25.7731 33.5888 25.5394C33.5744 25.3057 33.6062 25.0714 33.6823 24.85C33.7585 24.6286 33.8775 24.4243 34.0325 24.2489L34.5298 23.6878L34.6025 23.6091C35.8481 22.3633 37.4351 21.5149 39.1629 21.1712C40.8907 20.8275 42.6816 21.0038 44.3091 21.678C45.9367 22.3522 47.3277 23.4939 48.3063 24.9587C49.285 26.4235 49.8072 28.1457 49.807 29.9073Z" fill="black"/>
</svg>
